<svg width="300" height="313" viewBox="0 0 300 313" fill="none" xmlns="http://www.w3.org/2000/svg">
<rect x="2" y="61" width="296" height="246" rx="6" fill="white"/>
<rect x="2" y="61" width="296" height="246" rx="6" stroke="black" stroke-width="4"/>
<rect x="10.5" y="69.5" width="279" height="229" rx="3.5" stroke="black"/>
<path d="M134 147C134 150.448 132.63 153.754 130.192 156.192C127.754 158.63 124.448 160 121 160C117.552 160 114.246 158.63 111.808 156.192C109.37 153.754 108 150.448 108 147H110.428C110.428 149.804 111.541 152.493 113.524 154.476C115.507 156.459 118.196 157.572 121 157.572C123.804 157.572 126.493 156.459 128.476 154.476C130.459 152.493 131.572 149.804 131.572 147H134Z" fill="#D9D9D9"/>
<path d="M192 147C192 150.448 190.63 153.754 188.192 156.192C185.754 158.63 182.448 160 179 160C175.552 160 172.246 158.63 169.808 156.192C167.37 153.754 166 150.448 166 147H168.428C168.428 149.804 169.541 152.493 171.524 154.476C173.507 156.459 176.196 157.572 179 157.572C181.804 157.572 184.493 156.459 186.476 154.476C188.459 152.493 189.572 149.804 189.572 147H192Z" fill="#D9D9D9"/>
<circle cx="150" cy="184" r="5" fill="#D9D9D9"/>
<path d="M214.152 122.16H218.104V124H211.608V122.192L215.48 116.976H211.624V115.136H218.056V116.944L214.152 122.16Z" fill="#83848A"/>
<path d="M223.728 87.24H229.656V90H219.912V87.288L225.72 79.464H219.936V76.704H229.584V79.416L223.728 87.24Z" fill="#83848A"/>
<path d="M204.304 51.32H212.208V55H199.216V51.384L206.96 40.952H199.248V37.272H212.112V40.888L204.304 51.32Z" fill="#1A73E8" fill-opacity="0.6"/>
<path d="M227.88 23.4H237.76V28H221.52V23.48L231.2 10.44H221.56V5.84H237.64V10.36L227.88 23.4Z" fill="#1A73E8"/>
<line x1="100" y1="312" x2="199" y2="312" stroke="black" stroke-width="2"/>
</svg>
