<svg width="50" height="50" viewBox="0 0 50 50" fill="none" xmlns="http://www.w3.org/2000/svg">
<path fill-rule="evenodd" clip-rule="evenodd" d="M26.5654 4.53727C28.6889 4.00616 31.2026 5.01516 31.843 7.56429L31.8402 7.56699C31.9986 8.20116 32.3093 8.79008 32.7469 9.2858C33.1845 9.78151 33.7366 10.17 34.3583 10.4196C34.9801 10.6693 35.6538 10.773 36.3247 10.7224C36.9956 10.6717 37.6447 10.4682 38.2191 10.1283C42.0459 7.8672 46.4249 12.1134 44.0932 15.8241C43.7426 16.3811 43.5327 17.0105 43.4805 17.6611C43.4282 18.3116 43.5352 18.9649 43.7927 19.5678C44.0501 20.1707 44.4507 20.7061 44.962 21.1304C45.4732 21.5547 46.0805 21.8559 46.7345 22.0096C51.0885 23.0319 51.0885 29.0388 46.7345 30.0639C46.0809 30.218 45.4739 30.5196 44.9631 30.944C44.4522 31.3684 44.0518 31.9037 43.7944 32.5064C43.5371 33.1091 43.43 33.7621 43.4819 34.4125C43.5338 35.0629 43.7432 35.6922 44.0932 36.2493C46.4249 39.96 42.0459 44.2063 38.2191 41.9452C37.6445 41.6059 36.9955 41.4028 36.3248 41.3525C35.6541 41.3022 34.9806 41.406 34.3591 41.6555C33.7375 41.9051 33.1855 42.2934 32.7478 42.7887C32.3101 43.2841 31.9992 43.8726 31.8402 44.5065C31.2044 47.0524 28.6993 48.063 26.5788 47.5384V34.0791C26.9442 34.1264 27.3143 34.1505 27.6871 34.1505C29.9063 34.1505 32.0346 33.2957 33.6039 31.7741C35.1731 30.2524 36.0547 28.1886 36.0547 26.0367C36.0547 23.8848 35.1731 21.821 33.6039 20.2994C32.0346 18.7778 29.9063 17.9229 27.6871 17.9229C27.3098 17.9229 26.9352 17.9476 26.5654 17.9961V4.53727Z" fill="#F18753"/>
<path fill-rule="evenodd" clip-rule="evenodd" d="M26.5797 4.53637C27.9723 4.88349 29.1977 5.89279 29.6176 7.56429L29.6148 7.56699C29.7732 8.20116 30.0839 8.79008 30.5215 9.2858C30.9591 9.78151 31.5112 10.17 32.133 10.4196C32.7547 10.6693 33.4284 10.773 34.0993 10.7224C34.7702 10.6717 35.4193 10.4682 35.9937 10.1283C39.8205 7.8672 44.1996 12.1134 41.8678 15.8241C41.5172 16.3811 41.3073 17.0105 41.2551 17.6611C41.2029 18.3116 41.3098 18.9649 41.5673 19.5678C41.8247 20.1707 42.2254 20.7061 42.7366 21.1304C43.2478 21.5547 43.8552 21.8559 44.5092 22.0096C48.8631 23.0319 48.8631 29.0388 44.5092 30.0639C43.8555 30.218 43.2486 30.5196 42.7377 30.944C42.2268 31.3684 41.8264 31.9037 41.5691 32.5064C41.3117 33.1091 41.2046 33.7621 41.2565 34.4125C41.3084 35.0629 41.5179 35.6922 41.8678 36.2493C44.1996 39.96 39.8205 44.2063 35.9937 41.9452C35.4192 41.6059 34.7702 41.4028 34.0995 41.3525C33.4287 41.3022 32.7552 41.406 32.1337 41.6555C31.5122 41.9051 30.9601 42.2934 30.5224 42.7887C30.0848 43.2841 29.7738 43.8726 29.6148 44.5065C29.1952 46.1866 27.9615 47.1981 26.5615 47.541V34.0802C28.3748 33.8471 30.0708 33.0421 31.3785 31.7741C32.9477 30.2524 33.8293 28.1886 33.8293 26.0367C33.8293 23.8848 32.9477 21.821 31.3785 20.2994C30.0751 19.0356 28.3861 18.2318 26.5797 17.9956V4.53637Z" fill="#E96528"/>
<rect width="27.0731" height="50" rx="4" fill="#C4C4C4"/>
<rect x="1.8125" y="4.3999" width="23.4475" height="41.2002" fill="#549AD4"/>
<path d="M3.82715 10.0156H5.82715" stroke="#E4EFF8" stroke-width="1.5" stroke-linecap="round"/>
<path d="M8.0332 10.0156H14.0332" stroke="#E4EFF8" stroke-width="1.5" stroke-linecap="round"/>
<path d="M16.5752 10.0156H22.5752" stroke="#E4EFF8" stroke-width="1.5" stroke-linecap="round"/>
<path d="M12.0332 14.0156H14.0332" stroke="#E4EFF8" stroke-width="1.5" stroke-linecap="round"/>
<path d="M3.82715 14.0156H9.82715" stroke="#E4EFF8" stroke-width="1.5" stroke-linecap="round"/>
<path d="M3.82715 18.0156H5.82715" stroke="#E4EFF8" stroke-width="1.5" stroke-linecap="round"/>
<path d="M8.0332 18.0156H14.0332" stroke="#E4EFF8" stroke-width="1.5" stroke-linecap="round"/>
<path d="M16.5752 18.0156H22.5752" stroke="#E4EFF8" stroke-width="1.5" stroke-linecap="round"/>
<path d="M3.82715 22.0156H5.82715" stroke="#E4EFF8" stroke-width="1.5" stroke-linecap="round"/>
<path d="M8.0332 22.0156H14.0332" stroke="#E4EFF8" stroke-width="1.5" stroke-linecap="round"/>
<path d="M16.5752 22.0156H22.5752" stroke="#E4EFF8" stroke-width="1.5" stroke-linecap="round"/>
<path d="M3.82715 26.0156H5.82715" stroke="#E4EFF8" stroke-width="1.5" stroke-linecap="round"/>
<path d="M8.0332 26.0156H14.0332" stroke="#E4EFF8" stroke-width="1.5" stroke-linecap="round"/>
<path d="M16.5752 26.0156H22.5752" stroke="#E4EFF8" stroke-width="1.5" stroke-linecap="round"/>
<path d="M12.0332 30.0156H14.0332" stroke="#E4EFF8" stroke-width="1.5" stroke-linecap="round"/>
<path d="M3.82715 30.0156H9.82715" stroke="#E4EFF8" stroke-width="1.5" stroke-linecap="round"/>
<path d="M3.82715 34.0156H5.82715" stroke="#E4EFF8" stroke-width="1.5" stroke-linecap="round"/>
<path d="M8.0332 34.0156H14.0332" stroke="#E4EFF8" stroke-width="1.5" stroke-linecap="round"/>
<path d="M16.5752 34.0156H22.5752" stroke="#E4EFF8" stroke-width="1.5" stroke-linecap="round"/>
<path d="M3.82715 38.0156H5.82715" stroke="#E4EFF8" stroke-width="1.5" stroke-linecap="round"/>
<path d="M8.0332 38.0156H14.0332" stroke="#E4EFF8" stroke-width="1.5" stroke-linecap="round"/>
<path d="M16.5752 38.0156H22.5752" stroke="#E4EFF8" stroke-width="1.5" stroke-linecap="round"/>
<ellipse cx="27.0721" cy="25.9211" rx="12.7596" ry="12.3967" fill="#E4EFF8"/>
<path d="M22.2204 30.9935C22.0236 30.9937 21.8335 30.9221 21.6857 30.7923L16.7332 26.4588C16.6461 26.3825 16.5763 26.2885 16.5284 26.1831C16.4806 26.0777 16.4559 25.9632 16.4559 25.8475C16.4559 25.7317 16.4806 25.6173 16.5284 25.5118C16.5763 25.4064 16.6461 25.3124 16.7332 25.2362L21.6857 20.9027C21.8479 20.7608 22.0598 20.6891 22.2748 20.7034C22.4898 20.7178 22.6904 20.8169 22.8323 20.9791C22.9742 21.1413 23.0459 21.3532 23.0316 21.5683C23.0172 21.7833 22.9181 21.9838 22.7559 22.1257L18.5018 25.8475L22.7555 29.5692C22.88 29.6781 22.9683 29.8223 23.0087 29.9827C23.049 30.143 23.0395 30.3119 22.9813 30.4667C22.9232 30.6215 22.8191 30.7549 22.6832 30.849C22.5472 30.9431 22.3858 30.9935 22.2204 30.9935ZM32.9558 30.9935C32.7904 30.9936 32.6289 30.9433 32.4929 30.8492C32.3568 30.7551 32.2528 30.6217 32.1945 30.4669C32.1363 30.3121 32.1268 30.1432 32.1671 29.9828C32.2074 29.8224 32.2958 29.6781 32.4203 29.5692L36.6744 25.8475L32.4207 22.1257C32.2585 21.9838 32.1593 21.7833 32.145 21.5683C32.1307 21.3532 32.2024 21.1413 32.3443 20.9791C32.4862 20.8169 32.6867 20.7178 32.9018 20.7034C33.1168 20.6891 33.3287 20.7608 33.4909 20.9027L38.4434 25.2362C38.5305 25.3124 38.6003 25.4064 38.6481 25.5118C38.696 25.6173 38.7207 25.7317 38.7207 25.8475C38.7207 25.9632 38.696 26.0777 38.6481 26.1831C38.6003 26.2885 38.5305 26.3825 38.4434 26.4588L33.4909 30.7923C33.343 30.9222 33.1527 30.9938 32.9558 30.9935Z" fill="#C0D8ED"/>
<path d="M21.1903 30.9935C20.9935 30.9937 20.8034 30.9221 20.6556 30.7923L15.7031 26.4588C15.616 26.3825 15.5462 26.2885 15.4983 26.1831C15.4505 26.0777 15.4258 25.9632 15.4258 25.8475C15.4258 25.7317 15.4505 25.6173 15.4983 25.5118C15.5462 25.4064 15.616 25.3124 15.7031 25.2362L20.6556 20.9027C20.8178 20.7608 21.0297 20.6891 21.2447 20.7034C21.4598 20.7178 21.6603 20.8169 21.8022 20.9791C21.9441 21.1413 22.0158 21.3532 22.0015 21.5683C21.9871 21.7833 21.888 21.9838 21.7258 22.1257L17.4717 25.8475L21.7254 29.5692C21.8499 29.6781 21.9382 29.8223 21.9786 29.9827C22.0189 30.143 22.0094 30.3119 21.9512 30.4667C21.8931 30.6215 21.7891 30.7549 21.6531 30.849C21.5171 30.9431 21.3557 30.9935 21.1903 30.9935ZM31.9257 30.9935C31.7603 30.9936 31.5988 30.9433 31.4628 30.8492C31.3267 30.7551 31.2227 30.6217 31.1645 30.4669C31.1062 30.3121 31.0967 30.1432 31.137 29.9828C31.1774 29.8224 31.2657 29.6781 31.3902 29.5692L35.6443 25.8475L31.3906 22.1257C31.2284 21.9838 31.1292 21.7833 31.1149 21.5683C31.1006 21.3532 31.1723 21.1413 31.3142 20.9791C31.4561 20.8169 31.6566 20.7178 31.8717 20.7034C32.0867 20.6891 32.2986 20.7608 32.4608 20.9027L37.4133 25.2362C37.5004 25.3124 37.5702 25.4064 37.618 25.5118C37.6659 25.6173 37.6906 25.7317 37.6906 25.8475C37.6906 25.9632 37.6659 26.0777 37.618 26.1831C37.5702 26.2885 37.5004 26.3825 37.4133 26.4588L32.4608 30.7923C32.3129 30.9222 32.1226 30.9938 31.9257 30.9935Z" fill="#E96528"/>
<path d="M25.2877 31.3787C25.3879 31.4429 25.5017 31.4828 25.6201 31.4953C25.7838 31.5124 25.9485 31.4762 26.09 31.3922C26.2314 31.3081 26.342 31.1807 26.4052 31.0288L30.4257 21.5678C30.4678 21.4745 30.4907 21.3738 30.4932 21.2716C30.4957 21.1693 30.4776 21.0676 30.44 20.9724C30.4025 20.8773 30.3462 20.7907 30.2746 20.7177C30.2029 20.6447 30.1173 20.5868 30.0229 20.5475C29.9285 20.5081 29.8271 20.4882 29.7248 20.4887C29.6225 20.4893 29.5214 20.5104 29.4274 20.5507C29.3334 20.5911 29.2485 20.6499 29.1776 20.7237C29.1068 20.7975 29.0515 20.8847 29.015 20.9803L24.9945 30.4413C24.9487 30.5512 24.9293 30.6703 24.9377 30.789C24.9461 30.9078 24.9821 31.0229 25.0429 31.1253C25.1036 31.2276 25.1875 31.3144 25.2877 31.3787Z" fill="#C0D8ED"/>
<path d="M24.7484 31.2317C24.8486 31.296 24.9625 31.3359 25.0809 31.3484C25.2445 31.3655 25.4093 31.3293 25.5507 31.2453C25.6922 31.1612 25.8027 31.0338 25.8659 30.8819L29.8864 21.4208C29.9285 21.3276 29.9515 21.2269 29.954 21.1246C29.9564 21.0224 29.9383 20.9207 29.9008 20.8255C29.8632 20.7304 29.8069 20.6437 29.7353 20.5707C29.6636 20.4977 29.5781 20.4399 29.4836 20.4005C29.3892 20.3612 29.2878 20.3412 29.1856 20.3418C29.0833 20.3424 28.9821 20.3635 28.8881 20.4038C28.7942 20.4442 28.7092 20.503 28.6384 20.5768C28.5675 20.6506 28.5122 20.7378 28.4757 20.8334L24.4552 30.2944C24.4095 30.4043 24.39 30.5234 24.3984 30.6421C24.4068 30.7609 24.4428 30.876 24.5036 30.9784C24.5644 31.0807 24.6482 31.1675 24.7484 31.2317Z" fill="#E96528"/>
</svg>
