<svg width="38" height="24" viewBox="0 0 38 24" fill="none" xmlns="http://www.w3.org/2000/svg">
<path d="M0 0H27.4286L38 11.5L27.4286 24H0V0Z" fill="#D9D9D9"/>
<path d="M15.4297 15.3594V5H16.8828V17H15.5547L15.4297 15.3594ZM9.74219 12.8672V12.7031C9.74219 12.0573 9.82031 11.4714 9.97656 10.9453C10.138 10.4141 10.3646 9.95833 10.6562 9.57812C10.9531 9.19792 11.3047 8.90625 11.7109 8.70312C12.1224 8.49479 12.5807 8.39062 13.0859 8.39062C13.6172 8.39062 14.0807 8.48438 14.4766 8.67188C14.8776 8.85417 15.2161 9.1224 15.4922 9.47656C15.7734 9.82552 15.9948 10.2474 16.1562 10.7422C16.3177 11.237 16.4297 11.7969 16.4922 12.4219V13.1406C16.4349 13.7604 16.3229 14.3177 16.1562 14.8125C15.9948 15.3073 15.7734 15.7292 15.4922 16.0781C15.2161 16.4271 14.8776 16.6953 14.4766 16.8828C14.0755 17.0651 13.6068 17.1562 13.0703 17.1562C12.5755 17.1562 12.1224 17.0495 11.7109 16.8359C11.3047 16.6224 10.9531 16.3229 10.6562 15.9375C10.3646 15.5521 10.138 15.099 9.97656 14.5781C9.82031 14.0521 9.74219 13.4818 9.74219 12.8672ZM11.1953 12.7031V12.8672C11.1953 13.2891 11.237 13.6849 11.3203 14.0547C11.4089 14.4245 11.5443 14.75 11.7266 15.0312C11.9089 15.3125 12.1406 15.5339 12.4219 15.6953C12.7031 15.8516 13.0391 15.9297 13.4297 15.9297C13.9089 15.9297 14.3021 15.8281 14.6094 15.625C14.9219 15.4219 15.1719 15.1536 15.3594 14.8203C15.5469 14.487 15.6927 14.125 15.7969 13.7344V11.8516C15.7344 11.5651 15.6432 11.2891 15.5234 11.0234C15.4089 10.7526 15.2578 10.513 15.0703 10.3047C14.888 10.0911 14.6615 9.92188 14.3906 9.79688C14.125 9.67188 13.8099 9.60938 13.4453 9.60938C13.0495 9.60938 12.7083 9.69271 12.4219 9.85938C12.1406 10.0208 11.9089 10.2448 11.7266 10.5312C11.5443 10.8125 11.4089 11.1406 11.3203 11.5156C11.237 11.8854 11.1953 12.2812 11.1953 12.7031ZM19.15 12.8672V12.6875C19.15 12.0781 19.2385 11.513 19.4156 10.9922C19.5927 10.4661 19.8479 10.0104 20.1812 9.625C20.5146 9.23438 20.9182 8.93229 21.3922 8.71875C21.8661 8.5 22.3974 8.39062 22.9859 8.39062C23.5797 8.39062 24.1135 8.5 24.5875 8.71875C25.0667 8.93229 25.4729 9.23438 25.8062 9.625C26.1448 10.0104 26.4026 10.4661 26.5797 10.9922C26.7568 11.513 26.8453 12.0781 26.8453 12.6875V12.8672C26.8453 13.4766 26.7568 14.0417 26.5797 14.5625C26.4026 15.0833 26.1448 15.5391 25.8062 15.9297C25.4729 16.3151 25.0693 16.6172 24.5953 16.8359C24.1266 17.0495 23.5953 17.1562 23.0016 17.1562C22.4078 17.1562 21.874 17.0495 21.4 16.8359C20.926 16.6172 20.5198 16.3151 20.1812 15.9297C19.8479 15.5391 19.5927 15.0833 19.4156 14.5625C19.2385 14.0417 19.15 13.4766 19.15 12.8672ZM20.5953 12.6875V12.8672C20.5953 13.2891 20.6448 13.6875 20.7437 14.0625C20.8427 14.4323 20.9911 14.7604 21.1891 15.0469C21.3922 15.3333 21.6448 15.5599 21.9469 15.7266C22.249 15.888 22.6005 15.9688 23.0016 15.9688C23.3974 15.9688 23.7437 15.888 24.0406 15.7266C24.3427 15.5599 24.5927 15.3333 24.7906 15.0469C24.9885 14.7604 25.137 14.4323 25.2359 14.0625C25.3401 13.6875 25.3922 13.2891 25.3922 12.8672V12.6875C25.3922 12.2708 25.3401 11.8776 25.2359 11.5078C25.137 11.1328 24.9859 10.8021 24.7828 10.5156C24.5849 10.224 24.3349 9.99479 24.0328 9.82812C23.7359 9.66146 23.387 9.57812 22.9859 9.57812C22.5901 9.57812 22.2411 9.66146 21.9391 9.82812C21.6422 9.99479 21.3922 10.224 21.1891 10.5156C20.9911 10.8021 20.8427 11.1328 20.7437 11.5078C20.6448 11.8776 20.5953 12.2708 20.5953 12.6875Z" fill="#292F3F"/>
</svg>
