<svg width="20" height="20" viewBox="0 0 20 20" fill="none" xmlns="http://www.w3.org/2000/svg">
<path d="M13.375 17.3L16.05 14.625V16.825H16.925V13.125H13.25V14H15.425L12.75 16.675L13.375 17.3ZM15 19.55C13.75 19.55 12.6873 19.1127 11.812 18.238C10.9373 17.3627 10.5 16.3 10.5 15.05C10.5 13.8 10.9373 12.7377 11.812 11.863C12.6873 10.9877 13.75 10.55 15 10.55C16.25 10.55 17.3127 10.9877 18.188 11.863C19.0627 12.7377 19.5 13.8 19.5 15.05C19.5 16.3 19.0627 17.3627 18.188 18.238C17.3127 19.1127 16.25 19.55 15 19.55ZM4.25 5.875H13.75V4.375H4.25V5.875ZM8.6 17.5H2.3C1.8 17.5 1.375 17.325 1.025 16.975C0.675 16.625 0.5 16.2 0.5 15.7V2.3C0.5 1.8 0.675 1.375 1.025 1.025C1.375 0.675 1.8 0.5 2.3 0.5H15.7C16.2 0.5 16.625 0.675 16.975 1.025C17.325 1.375 17.5 1.8 17.5 2.3V8.625C17.1 8.45833 16.6917 8.33333 16.275 8.25C15.8583 8.16667 15.4333 8.125 15 8.125C14.7333 8.125 14.4833 8.13733 14.25 8.162C14.0167 8.18733 13.7833 8.23333 13.55 8.3V8.25H4.25V9.75H10.6C10.2 10.0667 9.846 10.425 9.538 10.825C9.22933 11.225 8.96667 11.6583 8.75 12.125H4.25V13.625H8.275C8.225 13.8583 8.18767 14.0873 8.163 14.312C8.13767 14.5373 8.125 14.7667 8.125 15C8.125 15.4333 8.15833 15.8583 8.225 16.275C8.29167 16.6917 8.41667 17.1 8.6 17.5Z" fill="white"/>
</svg>
