<svg width="32" height="32" viewBox="0 0 32 32" fill="none" xmlns="http://www.w3.org/2000/svg">
<rect width="32" height="32" rx="16" fill="#D9D9D9"/>
<path d="M13.6719 12.5469V21H12.2188V12.5469H13.6719ZM12.1094 10.3047C12.1094 10.0703 12.1797 9.8724 12.3203 9.71094C12.4661 9.54948 12.6797 9.46875 12.9609 9.46875C13.237 9.46875 13.4479 9.54948 13.5938 9.71094C13.7448 9.8724 13.8203 10.0703 13.8203 10.3047C13.8203 10.5286 13.7448 10.7214 13.5938 10.8828C13.4479 11.0391 13.237 11.1172 12.9609 11.1172C12.6797 11.1172 12.4661 11.0391 12.3203 10.8828C12.1797 10.7214 12.1094 10.5286 12.1094 10.3047ZM18.5484 21H17.1031V11.6562C17.1031 11.0469 17.2125 10.5339 17.4313 10.1172C17.6552 9.69531 17.9755 9.3776 18.3922 9.16406C18.8089 8.94531 19.3036 8.83594 19.8766 8.83594C20.0432 8.83594 20.2099 8.84635 20.3766 8.86719C20.5484 8.88802 20.7151 8.91927 20.8766 8.96094L20.7984 10.1406C20.6891 10.1146 20.5641 10.0964 20.4234 10.0859C20.288 10.0755 20.1526 10.0703 20.0172 10.0703C19.7099 10.0703 19.4443 10.1328 19.2203 10.2578C19.0016 10.3776 18.8349 10.5547 18.7203 10.7891C18.6057 11.0234 18.5484 11.3125 18.5484 11.6562V21ZM20.3453 12.5469V13.6562H15.7672V12.5469H20.3453Z" fill="#292F3F"/>
</svg>
