<svg width="50" height="50" viewBox="0 0 50 50" fill="none" xmlns="http://www.w3.org/2000/svg">
<path fill-rule="evenodd" clip-rule="evenodd" d="M26.5654 4.53727C28.6889 4.00616 31.2026 5.01516 31.843 7.56429L31.8402 7.56699C31.9986 8.20116 32.3093 8.79008 32.7469 9.2858C33.1845 9.78151 33.7366 10.17 34.3583 10.4196C34.9801 10.6693 35.6538 10.773 36.3247 10.7224C36.9956 10.6717 37.6447 10.4682 38.2191 10.1283C42.0459 7.8672 46.4249 12.1134 44.0932 15.8241C43.7426 16.3811 43.5327 17.0105 43.4805 17.6611C43.4282 18.3116 43.5352 18.9649 43.7927 19.5678C44.0501 20.1707 44.4507 20.7061 44.962 21.1304C45.4732 21.5547 46.0805 21.8559 46.7345 22.0096C51.0885 23.0319 51.0885 29.0388 46.7345 30.0639C46.0809 30.218 45.4739 30.5196 44.9631 30.944C44.4522 31.3684 44.0518 31.9037 43.7944 32.5064C43.5371 33.1091 43.43 33.7621 43.4819 34.4125C43.5338 35.0629 43.7432 35.6922 44.0932 36.2493C46.4249 39.96 42.0459 44.2063 38.2191 41.9452C37.6445 41.6059 36.9955 41.4028 36.3248 41.3525C35.6541 41.3022 34.9806 41.406 34.3591 41.6555C33.7375 41.9051 33.1855 42.2934 32.7478 42.7887C32.3101 43.2841 31.9992 43.8726 31.8402 44.5065C31.2044 47.0524 28.6993 48.063 26.5788 47.5384V34.0791C26.9442 34.1264 27.3143 34.1505 27.6871 34.1505C29.9063 34.1505 32.0346 33.2957 33.6039 31.7741C35.1731 30.2524 36.0547 28.1886 36.0547 26.0367C36.0547 23.8848 35.1731 21.821 33.6039 20.2994C32.0346 18.7778 29.9063 17.9229 27.6871 17.9229C27.3098 17.9229 26.9352 17.9476 26.5654 17.9961V4.53727Z" fill="#549AD4"/>
<path fill-rule="evenodd" clip-rule="evenodd" d="M26.5797 4.53637C27.9723 4.88349 29.1977 5.89279 29.6176 7.56429L29.6148 7.56699C29.7732 8.20116 30.0839 8.79008 30.5215 9.2858C30.9591 9.78151 31.5112 10.17 32.133 10.4196C32.7547 10.6693 33.4284 10.773 34.0993 10.7224C34.7702 10.6717 35.4193 10.4682 35.9937 10.1283C39.8205 7.8672 44.1996 12.1134 41.8678 15.8241C41.5172 16.3811 41.3073 17.0105 41.2551 17.6611C41.2029 18.3116 41.3098 18.9649 41.5673 19.5678C41.8247 20.1707 42.2254 20.7061 42.7366 21.1304C43.2478 21.5547 43.8552 21.8559 44.5092 22.0096C48.8631 23.0319 48.8631 29.0388 44.5092 30.0639C43.8555 30.218 43.2486 30.5196 42.7377 30.944C42.2268 31.3684 41.8264 31.9037 41.5691 32.5064C41.3117 33.1091 41.2046 33.7621 41.2565 34.4125C41.3084 35.0629 41.5179 35.6922 41.8678 36.2493C44.1996 39.96 39.8205 44.2063 35.9937 41.9452C35.4192 41.6059 34.7702 41.4028 34.0995 41.3525C33.4287 41.3022 32.7552 41.406 32.1337 41.6555C31.5122 41.9051 30.9601 42.2934 30.5224 42.7887C30.0848 43.2841 29.7738 43.8726 29.6148 44.5065C29.1952 46.1866 27.9615 47.1981 26.5615 47.541V34.0802C28.3748 33.8471 30.0708 33.0421 31.3785 31.7741C32.9477 30.2524 33.8293 28.1886 33.8293 26.0367C33.8293 23.8848 32.9477 21.821 31.3785 20.2994C30.0751 19.0356 28.3861 18.2318 26.5797 17.9956V4.53637Z" fill="#186DBF"/>
<rect width="27.0731" height="50" rx="4" fill="#C4C4C4"/>
<rect x="1.8125" y="4.3999" width="23.4475" height="41.2002" fill="#549AD4"/>
<path d="M3.82715 10.0156H5.82715" stroke="#E4EFF8" stroke-width="1.5" stroke-linecap="round"/>
<path d="M8.0332 10.0156H14.0332" stroke="#E4EFF8" stroke-width="1.5" stroke-linecap="round"/>
<path d="M16.5752 10.0156H22.5752" stroke="#E4EFF8" stroke-width="1.5" stroke-linecap="round"/>
<path d="M12.0332 14.0156H14.0332" stroke="#E4EFF8" stroke-width="1.5" stroke-linecap="round"/>
<path d="M3.82715 14.0156H9.82715" stroke="#E4EFF8" stroke-width="1.5" stroke-linecap="round"/>
<path d="M3.82715 18.0156H5.82715" stroke="#E4EFF8" stroke-width="1.5" stroke-linecap="round"/>
<path d="M8.0332 18.0156H14.0332" stroke="#E4EFF8" stroke-width="1.5" stroke-linecap="round"/>
<path d="M16.5752 18.0156H22.5752" stroke="#E4EFF8" stroke-width="1.5" stroke-linecap="round"/>
<path d="M3.82715 22.0156H5.82715" stroke="#E4EFF8" stroke-width="1.5" stroke-linecap="round"/>
<path d="M8.0332 22.0156H14.0332" stroke="#E4EFF8" stroke-width="1.5" stroke-linecap="round"/>
<path d="M16.5752 22.0156H22.5752" stroke="#E4EFF8" stroke-width="1.5" stroke-linecap="round"/>
<path d="M3.82715 26.0156H5.82715" stroke="#E4EFF8" stroke-width="1.5" stroke-linecap="round"/>
<path d="M8.0332 26.0156H14.0332" stroke="#E4EFF8" stroke-width="1.5" stroke-linecap="round"/>
<path d="M16.5752 26.0156H22.5752" stroke="#E4EFF8" stroke-width="1.5" stroke-linecap="round"/>
<path d="M12.0332 30.0156H14.0332" stroke="#E4EFF8" stroke-width="1.5" stroke-linecap="round"/>
<path d="M3.82715 30.0156H9.82715" stroke="#E4EFF8" stroke-width="1.5" stroke-linecap="round"/>
<path d="M3.82715 34.0156H5.82715" stroke="#E4EFF8" stroke-width="1.5" stroke-linecap="round"/>
<path d="M8.0332 34.0156H14.0332" stroke="#E4EFF8" stroke-width="1.5" stroke-linecap="round"/>
<path d="M16.5752 34.0156H22.5752" stroke="#E4EFF8" stroke-width="1.5" stroke-linecap="round"/>
<path d="M3.82715 38.0156H5.82715" stroke="#E4EFF8" stroke-width="1.5" stroke-linecap="round"/>
<path d="M8.0332 38.0156H14.0332" stroke="#E4EFF8" stroke-width="1.5" stroke-linecap="round"/>
<path d="M16.5752 38.0156H22.5752" stroke="#E4EFF8" stroke-width="1.5" stroke-linecap="round"/>
<ellipse cx="26.6851" cy="25.9211" rx="12.3726" ry="12.3967" fill="#C4DCF0"/>
<path d="M39.0579 26.4248C39.0579 32.9931 33.6105 38.3178 26.8909 38.3178C20.1712 38.3178 14.6838 33.5746 15.3567 26.4248C15.3567 19.8565 20.1712 15.2441 26.8909 15.2441C35.9044 15.4817 39.0579 19.8565 39.0579 26.4248Z" fill="#E4EFF8"/>
<path d="M36.2274 31.7698C37.4091 30.059 38.1234 27.9091 38.1234 25.5842C38.1234 23.1565 37.3571 20.934 36.0846 19.1793C35.8377 18.8429 35.383 18.7989 35.0977 19.1058L34.9417 19.2668C34.682 19.5446 34.6562 20.0127 34.8768 20.3195C35.9156 21.7527 36.539 23.5806 36.539 25.5693C36.539 27.4852 35.9547 29.2548 34.9938 30.6586C34.7729 30.9803 34.812 31.4333 35.0845 31.6967L35.2405 31.8577C35.5262 32.1646 35.9805 32.121 36.2274 31.7698Z" fill="#F35E19"/>
<path d="M34.5126 29.8688C35.2787 28.6551 35.7332 27.1784 35.7332 25.5843C35.7332 23.9173 35.2395 22.3671 34.4087 21.1239C34.162 20.7586 33.6945 20.7 33.3957 21.0215L33.24 21.1827C32.9803 21.4603 32.954 21.8993 33.1621 22.2208C33.7854 23.1568 34.162 24.3266 34.162 25.5843C34.162 26.798 33.8244 27.9238 33.24 28.8305C33.0451 29.1524 33.0972 29.5908 33.3569 29.8397L33.5127 29.9858C33.7984 30.3076 34.2657 30.2343 34.5126 29.8688Z" fill="#F35E19"/>
<path d="M32.6172 27.8949C32.9808 27.222 33.1884 26.4322 33.1884 25.5844C33.1884 24.6922 32.9548 23.8439 32.5521 23.142C32.3184 22.7326 31.8251 22.6597 31.5131 22.9815L31.3573 23.142C31.1239 23.3909 31.0586 23.8 31.2404 24.1073C31.4743 24.5312 31.617 25.043 31.617 25.5844C31.617 26.0814 31.5001 26.5492 31.2926 26.9591C31.1239 27.2805 31.1755 27.6755 31.4224 27.9244L31.5782 28.0849C31.8899 28.3918 32.3963 28.3043 32.6172 27.8949Z" fill="#F35E19"/>
<path d="M29.2528 19.2688C29.0341 19.0226 28.7668 18.8997 28.4513 18.8997C28.1352 18.8997 27.8712 19.0226 27.6588 19.2688C27.4461 19.5149 27.3399 19.8161 27.3399 20.1714V27.7822L25.8683 26.121C25.2744 25.4505 24.5539 25.1154 23.7058 25.1154C23.2937 25.1154 22.9001 25.201 22.5244 25.3717C22.1487 25.5431 21.8219 25.7924 21.5433 26.121L20.0896 27.7618V20.1714C20.0896 19.8159 19.9791 19.5149 19.7588 19.2688C19.5385 19.0229 19.2694 18.8997 18.9511 18.8997C18.6329 18.8997 18.3632 19.0229 18.1429 19.2688C17.9225 19.5149 17.8125 19.8159 17.8125 20.1714V30.8186C17.8125 31.1746 17.9219 31.4749 18.1405 31.7212C18.3589 31.9676 18.6259 32.0903 18.942 32.0903C19.1727 32.0903 19.3913 32.0158 19.598 31.8648V31.885L22.9497 28.09C23.156 27.8576 23.4052 27.7417 23.6968 27.7417C23.9636 27.7417 24.2067 27.851 24.4251 28.0694L27.6682 31.7416L27.8137 31.885L27.8319 31.8648C28.026 32.0158 28.2327 32.0903 28.4513 32.0903C28.7668 32.0903 29.0341 31.9676 29.2528 31.7212C29.4714 31.4749 29.5806 31.1746 29.5806 30.8186V20.1714C29.5806 19.8161 29.4714 19.5149 29.2528 19.2688Z" fill="#186DBF"/>
</svg>
