<svg width="24" height="18" viewBox="0 0 24 18" fill="none" xmlns="http://www.w3.org/2000/svg">
<path d="M21.773 16.7341C23.1611 14.647 24.0001 12.0241 24.0001 9.18774C24.0001 6.22595 23.1 3.51446 21.6053 1.37377C21.3153 0.96335 20.7812 0.909716 20.446 1.28412L20.2628 1.48052C19.9578 1.81942 19.9274 2.39048 20.1866 2.76488C21.4068 4.51329 22.139 6.74338 22.139 9.1696C22.139 11.507 21.4527 13.6658 20.324 15.3784C20.0645 15.771 20.1104 16.3236 20.4305 16.6449L20.6137 16.8413C20.9493 17.2157 21.483 17.1626 21.773 16.7341Z" fill="white"/>
<path d="M19.7595 14.4149C20.6594 12.9341 21.1933 11.1326 21.1933 9.18775C21.1933 7.15406 20.6133 5.26289 19.6374 3.74611C19.3477 3.30045 18.7985 3.22894 18.4476 3.62122L18.2646 3.81788C17.9595 4.15652 17.9287 4.69209 18.1731 5.08436C18.9053 6.22622 19.3477 7.65335 19.3477 9.18775C19.3477 10.6685 18.9511 12.042 18.2646 13.1481C18.0357 13.5409 18.0969 14.0757 18.4019 14.3794L18.5849 14.5576C18.9205 14.9502 19.4695 14.8608 19.7595 14.4149Z" fill="white"/>
<path d="M17.5321 12.007C17.9593 11.1862 18.2032 10.2226 18.2032 9.18823C18.2032 8.09975 17.9287 7.0649 17.4557 6.20857C17.1812 5.70902 16.6017 5.62015 16.2353 6.01269L16.0523 6.20857C15.778 6.51224 15.7014 7.01126 15.9149 7.38618C16.1896 7.90335 16.3573 8.52778 16.3573 9.18823C16.3573 9.79453 16.22 10.3653 15.9763 10.8654C15.778 11.2574 15.8387 11.7393 16.1287 12.043L16.3117 12.2389C16.6779 12.6133 17.2727 12.5065 17.5321 12.007Z" fill="white"/>
<path d="M13.4383 1.35782C13.1813 1.05752 12.8674 0.907499 12.4967 0.907499C12.1254 0.907499 11.8153 1.05752 11.5659 1.35782C11.316 1.65812 11.1912 2.02552 11.1912 2.459V11.7441L9.46261 9.71745C8.765 8.89947 7.91874 8.49061 6.9225 8.49061C6.43845 8.49061 5.9761 8.59503 5.53481 8.80334C5.09351 9.01244 4.70959 9.31662 4.38239 9.71745L2.6748 11.7193V2.459C2.6748 2.02526 2.54498 1.65812 2.28623 1.35782C2.02748 1.05778 1.71135 0.907499 1.3374 0.907499C0.963673 0.907499 0.646879 1.05778 0.388127 1.35782C0.129154 1.65812 0 2.02526 0 2.459V15.4485C0 15.8828 0.128489 16.2491 0.385247 16.5497C0.641784 16.8502 0.955476 17 1.32677 17C1.5977 17 1.85446 16.9091 2.09726 16.7248V16.7494L6.03437 12.1196C6.27672 11.8361 6.56937 11.6946 6.91186 11.6946C7.22533 11.6946 7.51089 11.8281 7.76743 12.0944L11.5769 16.5746L11.7477 16.7494L11.7692 16.7248C11.9972 16.9091 12.24 17 12.4967 17C12.8674 17 13.1813 16.8502 13.4383 16.5497C13.695 16.2491 13.8233 15.8828 13.8233 15.4485V2.459C13.8233 2.02552 13.695 1.65812 13.4383 1.35782Z" fill="white"/>
</svg>
