<svg width="39" height="23" viewBox="0 0 39 23" fill="none" xmlns="http://www.w3.org/2000/svg">
<g clip-path="url(#clip0_219_3655)">
<path d="M34.6298 21.6848C36.8231 18.914 38.1486 15.4318 38.1486 11.6661C38.1486 7.734 36.7265 4.13416 34.3649 1.29213C33.9067 0.747257 33.0628 0.67605 32.5332 1.17311L32.2437 1.43386C31.7617 1.88379 31.7138 2.64194 32.1233 3.13901C34.0512 5.46024 35.2081 8.42095 35.2081 11.6421C35.2081 14.7452 34.1237 17.6113 32.3403 19.885C31.9304 20.4062 32.0029 21.1399 32.5087 21.5665L32.7981 21.8272C33.3284 22.3243 34.1716 22.2537 34.6298 21.6848Z" fill="#F35E19"/>
<path d="M31.4489 18.6057C32.8707 16.6398 33.7142 14.2481 33.7142 11.6661C33.7142 8.96616 32.7979 6.45539 31.256 4.44168C30.7982 3.85002 29.9305 3.75508 29.376 4.27588L29.0869 4.53697C28.6049 4.98656 28.5563 5.69758 28.9423 6.21838C30.0992 7.73434 30.7982 9.62902 30.7982 11.6661C30.7982 13.632 30.1716 15.4555 29.0869 16.924C28.7253 17.4455 28.8219 18.1555 29.3039 18.5586L29.593 18.7953C30.1233 19.3164 30.9907 19.1977 31.4489 18.6057Z" fill="#F35E19"/>
<path d="M27.9301 15.4084C28.605 14.3186 28.9903 13.0393 28.9903 11.6661C28.9903 10.221 28.5567 8.84715 27.8094 7.71027C27.3757 7.04706 26.46 6.92907 25.8811 7.45021L25.5919 7.71027C25.1586 8.11342 25.0375 8.77594 25.3749 9.27369C25.8089 9.96029 26.0739 10.7893 26.0739 11.6661C26.0739 12.4711 25.8569 13.2289 25.4719 13.8928C25.1586 14.4132 25.2545 15.053 25.7127 15.4562L26.0018 15.7162C26.5804 16.2133 27.5202 16.0716 27.9301 15.4084Z" fill="#F35E19"/>
<path d="M21.4621 1.27011C21.0561 0.871429 20.5601 0.67226 19.9745 0.67226C19.3878 0.67226 18.8978 0.871429 18.5037 1.27011C18.1088 1.66879 17.9118 2.15657 17.9118 2.73206V15.0592L15.1805 12.3685C14.0783 11.2826 12.7412 10.7398 11.1671 10.7398C10.4023 10.7398 9.67181 10.8784 8.97456 11.155C8.2773 11.4326 7.67071 11.8364 7.15372 12.3685L4.45571 15.0262V2.73206C4.45571 2.15623 4.2506 1.66879 3.84177 1.27011C3.43293 0.871773 2.93345 0.67226 2.3426 0.67226C1.75211 0.67226 1.25157 0.871773 0.842738 1.27011C0.433557 1.66879 0.229492 2.15623 0.229492 2.73206V19.9772C0.229492 20.5537 0.432507 21.0401 0.838188 21.4392C1.24352 21.8382 1.73916 22.037 2.3258 22.037C2.75388 22.037 3.15956 21.9163 3.54319 21.6717V21.7044L9.76386 15.5577C10.1468 15.1813 10.6092 14.9935 11.1503 14.9935C11.6456 14.9935 12.0968 15.1707 12.5021 15.5243L18.5212 21.4722L18.791 21.7044L18.825 21.6717C19.1852 21.9163 19.5688 22.037 19.9745 22.037C20.5601 22.037 21.0561 21.8382 21.4621 21.4392C21.8678 21.0401 22.0704 20.5537 22.0704 19.9772V2.73206C22.0704 2.15657 21.8678 1.66879 21.4621 1.27011Z" fill="#186DBF"/>
</g>
<defs>
<clipPath id="clip0_219_3655">
<rect width="37.9487" height="21.5236" fill="white" transform="translate(0.179688 0.55188)"/>
</clipPath>
</defs>
</svg>
