<svg width="136" height="163" viewBox="0 0 136 163" fill="none" xmlns="http://www.w3.org/2000/svg">
<rect x="4.5332" y="10.1436" width="127.282" height="148.659" rx="1" fill="#464646"/>
<rect x="57.1899" y="91.6436" width="24.4103" height="4.897" fill="white" fill-opacity="0.3"/>
<rect x="57.1899" y="97.2402" width="18.8308" height="4.897" fill="white" fill-opacity="0.3"/>
<rect x="57.1899" y="102.837" width="49.8667" height="3.84764" fill="white" fill-opacity="0.3"/>
<rect x="56.8408" y="107.384" width="25.1077" height="3.84763" fill="white" fill-opacity="0.3"/>
<rect x="90.6665" y="149.708" width="9.41539" height="3.84764" fill="white" fill-opacity="0.3"/>
<rect x="28.2461" y="125.224" width="6.27692" height="3.84764" fill="white" fill-opacity="0.3"/>
<rect x="7.67188" y="38.8262" width="13.6" height="4.54721" fill="white" fill-opacity="0.3"/>
<rect x="7.67188" y="44.7725" width="13.6" height="3.14807" fill="white" fill-opacity="0.3"/>
<rect x="105.662" y="16.0898" width="3.13846" height="6.29614" fill="white" fill-opacity="0.3"/>
<rect x="110.892" y="16.0898" width="3.13847" height="6.29614" fill="white" fill-opacity="0.3"/>
<rect x="28.2461" y="134.667" width="9.06667" height="3.84763" fill="white" fill-opacity="0.3"/>
<rect x="28.2461" y="143.762" width="6.27692" height="3.84764" fill="white" fill-opacity="0.3"/>
<rect x="55.7949" y="145.161" width="3.8359" height="10.4936" fill="white" fill-opacity="0.3"/>
<rect x="73.5796" y="138.165" width="3.8359" height="6.64592" fill="white" fill-opacity="0.3"/>
<rect x="77.4155" y="142.013" width="6.62564" height="2.79829" fill="white" fill-opacity="0.3"/>
<rect x="100.431" y="134.317" width="3.48718" height="19.2382" fill="white" fill-opacity="0.3"/>
<rect x="111.59" y="113.681" width="3.48718" height="6.29614" fill="white" fill-opacity="0.3"/>
<rect x="106.359" y="73.4551" width="3.48717" height="10.8433" fill="white" fill-opacity="0.3"/>
<rect x="121.354" y="147.26" width="5.23077" height="3.84764" fill="white" fill-opacity="0.3"/>
<rect x="121.354" y="151.807" width="6.97436" height="3.84763" fill="white" fill-opacity="0.3"/>
<rect width="31.3846" height="33.5794" transform="translate(24.0615 21.3369)" fill="#25882F"/>
<rect x="26.1538" y="21.3369" width="2.09231" height="1.39914" fill="#E9C68F"/>
<ellipse cx="27.2" cy="22.7359" rx="1.04615" ry="1.04936" fill="#E9C68F"/>
<ellipse cx="27.1999" cy="22.7357" rx="0.697436" ry="0.699571" fill="white"/>
<rect x="26.1538" y="53.5176" width="2.09231" height="1.39914" fill="#E9C68F"/>
<ellipse cx="27.2" cy="53.5171" rx="1.04615" ry="1.04936" fill="#E9C68F"/>
<ellipse cx="27.1999" cy="53.517" rx="0.697436" ry="0.699572" fill="white"/>
<rect x="37.313" y="53.5176" width="2.09231" height="1.39914" fill="#E9C68F"/>
<ellipse cx="38.3591" cy="53.5171" rx="1.04615" ry="1.04936" fill="#E9C68F"/>
<ellipse cx="38.3591" cy="53.517" rx="0.697435" ry="0.699572" fill="white"/>
<rect x="28.9434" y="53.5176" width="2.09231" height="1.39914" fill="#E9C68F"/>
<ellipse cx="29.9895" cy="53.5171" rx="1.04615" ry="1.04936" fill="#E9C68F"/>
<ellipse cx="29.9894" cy="53.517" rx="0.697436" ry="0.699572" fill="white"/>
<rect x="40.1025" y="53.5176" width="2.09231" height="1.39914" fill="#E9C68F"/>
<ellipse cx="41.1487" cy="53.5171" rx="1.04615" ry="1.04936" fill="#E9C68F"/>
<ellipse cx="41.1486" cy="53.517" rx="0.697436" ry="0.699572" fill="white"/>
<rect x="31.7334" y="53.5176" width="2.09231" height="1.39914" fill="#E9C68F"/>
<ellipse cx="32.7796" cy="53.5171" rx="1.04615" ry="1.04936" fill="#E9C68F"/>
<ellipse cx="32.7795" cy="53.517" rx="0.697436" ry="0.699572" fill="white"/>
<rect x="42.8921" y="53.5176" width="2.09231" height="1.39914" fill="#E9C68F"/>
<ellipse cx="43.9382" cy="53.5171" rx="1.04615" ry="1.04936" fill="#E9C68F"/>
<ellipse cx="43.9382" cy="53.517" rx="0.697435" ry="0.699572" fill="white"/>
<rect x="48.4717" y="53.5176" width="2.09231" height="1.39914" fill="#E9C68F"/>
<ellipse cx="49.5178" cy="53.5171" rx="1.04615" ry="1.04936" fill="#E9C68F"/>
<ellipse cx="49.5177" cy="53.517" rx="0.697435" ry="0.699572" fill="white"/>
<rect x="34.5229" y="53.5176" width="2.09231" height="1.39914" fill="#E9C68F"/>
<ellipse cx="35.5691" cy="53.5171" rx="1.04615" ry="1.04936" fill="#E9C68F"/>
<ellipse cx="35.569" cy="53.517" rx="0.697435" ry="0.699572" fill="white"/>
<rect x="45.6821" y="53.5176" width="2.09231" height="1.39914" fill="#E9C68F"/>
<ellipse cx="46.7283" cy="53.5171" rx="1.04615" ry="1.04936" fill="#E9C68F"/>
<ellipse cx="46.7282" cy="53.517" rx="0.697435" ry="0.699572" fill="white"/>
<rect x="51.2617" y="53.5176" width="2.09231" height="1.39914" fill="#E9C68F"/>
<ellipse cx="52.3079" cy="53.5171" rx="1.04615" ry="1.04936" fill="#E9C68F"/>
<ellipse cx="52.3078" cy="53.517" rx="0.697436" ry="0.699572" fill="white"/>
<rect x="37.313" y="21.3369" width="2.09231" height="1.39914" fill="#E9C68F"/>
<ellipse cx="38.3591" cy="22.7359" rx="1.04615" ry="1.04936" fill="#E9C68F"/>
<ellipse cx="38.3591" cy="22.7357" rx="0.697435" ry="0.699571" fill="white"/>
<rect x="28.9434" y="21.3369" width="2.09231" height="1.39914" fill="#E9C68F"/>
<ellipse cx="29.9895" cy="22.7359" rx="1.04615" ry="1.04936" fill="#E9C68F"/>
<ellipse cx="29.9894" cy="22.7357" rx="0.697436" ry="0.699571" fill="white"/>
<rect x="40.1025" y="21.3369" width="2.09231" height="1.39914" fill="#E9C68F"/>
<ellipse cx="41.1487" cy="22.7359" rx="1.04615" ry="1.04936" fill="#E9C68F"/>
<ellipse cx="41.1486" cy="22.7357" rx="0.697436" ry="0.699571" fill="white"/>
<rect x="31.7334" y="21.3369" width="2.09231" height="1.39914" fill="#E9C68F"/>
<ellipse cx="32.7796" cy="22.7359" rx="1.04615" ry="1.04936" fill="#E9C68F"/>
<ellipse cx="32.7795" cy="22.7357" rx="0.697436" ry="0.699571" fill="white"/>
<rect x="42.8921" y="21.3369" width="2.09231" height="1.39914" fill="#E9C68F"/>
<ellipse cx="43.9382" cy="22.7359" rx="1.04615" ry="1.04936" fill="#E9C68F"/>
<ellipse cx="43.9382" cy="22.7357" rx="0.697435" ry="0.699571" fill="white"/>
<rect x="34.5229" y="21.3369" width="2.09231" height="1.39914" fill="#E9C68F"/>
<ellipse cx="35.5691" cy="22.7359" rx="1.04615" ry="1.04936" fill="#E9C68F"/>
<ellipse cx="35.569" cy="22.7357" rx="0.697435" ry="0.699571" fill="white"/>
<rect x="45.6821" y="21.3369" width="2.09231" height="1.39914" fill="#E9C68F"/>
<ellipse cx="46.7283" cy="22.7359" rx="1.04615" ry="1.04936" fill="#E9C68F"/>
<ellipse cx="46.7282" cy="22.7357" rx="0.697435" ry="0.699571" fill="white"/>
<rect x="48.4717" y="21.3369" width="2.09231" height="1.39914" fill="#E9C68F"/>
<ellipse cx="49.5178" cy="22.7359" rx="1.04615" ry="1.04936" fill="#E9C68F"/>
<ellipse cx="49.5177" cy="22.7357" rx="0.697435" ry="0.699571" fill="white"/>
<rect x="51.2617" y="21.3369" width="2.09231" height="1.39914" fill="#E9C68F"/>
<ellipse cx="52.3079" cy="22.7359" rx="1.04615" ry="1.04936" fill="#E9C68F"/>
<ellipse cx="52.3078" cy="22.7357" rx="0.697436" ry="0.699571" fill="white"/>
<rect x="26.5024" y="34.2793" width="13.2513" height="13.2918" fill="#1A1A1A"/>
<rect x="45.6821" y="25.5342" width="2.78974" height="4.897" fill="#1A1A1A"/>
<rect x="49.8667" y="39.1758" width="4.18461" height="2.09871" fill="#1A1A1A"/>
<rect x="25.1079" y="26.2344" width="6.27692" height="4.19742" fill="white" fill-opacity="0.3"/>
<path d="M63.4668 38.8257L64.513 37.7764H66.2565L67.3027 38.8257V40.5746L66.2565 41.624H64.513L63.4668 40.5746V38.8257Z" fill="#E9C68F"/>
<rect x="64.5132" y="38.8262" width="1.74359" height="1.74893" fill="white"/>
<path d="M63.4668 43.7232L64.513 42.6738H66.2565L67.3027 43.7232V45.4721L66.2565 46.5215H64.513L63.4668 45.4721V43.7232Z" fill="#E9C68F"/>
<rect x="64.5132" y="43.7236" width="1.74359" height="1.74892" fill="white"/>
<path d="M63.4668 48.6206L64.513 47.5713H66.2565L67.3027 48.6206V50.3696L66.2565 51.4189H64.513L63.4668 50.3696V48.6206Z" fill="#E9C68F"/>
<rect x="64.5132" y="48.6211" width="1.74359" height="1.74892" fill="white"/>
<path d="M68.6973 38.8257L69.7434 37.7764H71.487L72.5332 38.8257V40.5746L71.487 41.624H69.7434L68.6973 40.5746V38.8257Z" fill="#E9C68F"/>
<rect x="69.7437" y="38.8262" width="1.74359" height="1.74893" fill="white"/>
<path d="M68.6973 43.7232L69.7434 42.6738H71.487L72.5332 43.7232V45.4721L71.487 46.5215H69.7434L68.6973 45.4721V43.7232Z" fill="#E9C68F"/>
<rect x="69.7437" y="43.7236" width="1.74359" height="1.74892" fill="white"/>
<path d="M68.6973 48.6206L69.7434 47.5713H71.487L72.5332 48.6206V50.3696L71.487 51.4189H69.7434L68.6973 50.3696V48.6206Z" fill="#E9C68F"/>
<rect x="69.7437" y="48.6211" width="1.74359" height="1.74892" fill="white"/>
<rect x="8.36914" y="114.729" width="41.9743" height="31.3846" transform="rotate(-90 8.36914 114.729)" fill="#557DD4"/>
<rect x="10.8101" y="112.98" width="10.4936" height="10.4615" transform="rotate(-90 10.8101 112.98)" fill="white" fill-opacity="0.3"/>
<rect x="16.041" y="91.6436" width="16.7897" height="4.53333" transform="rotate(-90 16.041 91.6436)" fill="white" fill-opacity="0.3"/>
<rect x="21.2715" y="91.6436" width="16.7897" height="4.53333" transform="rotate(-90 21.2715 91.6436)" fill="white" fill-opacity="0.3"/>
<rect x="26.5024" y="104.586" width="29.7318" height="4.53333" transform="rotate(-90 26.5024 104.586)" fill="white" fill-opacity="0.3"/>
<rect x="31.7334" y="98.9893" width="24.1352" height="4.53333" transform="rotate(-90 31.7334 98.9893)" fill="white" fill-opacity="0.3"/>
<rect x="10.8101" y="99.3389" width="24.485" height="4.53333" transform="rotate(-90 10.8101 99.3389)" fill="white" fill-opacity="0.3"/>
<rect x="16.7383" y="152.507" width="10.4615" height="31.4807" transform="rotate(-180 16.7383 152.507)" fill="#007300"/>
<rect x="16.7383" y="152.507" width="1.04615" height="31.4807" transform="rotate(-180 16.7383 152.507)" fill="black" fill-opacity="0.2"/>
<ellipse cx="10.4611" cy="126.273" rx="3.13846" ry="3.14807" transform="rotate(-180 10.4611 126.273)" fill="#E1E1E1"/>
<ellipse cx="10.4611" cy="136.767" rx="3.13846" ry="3.14807" transform="rotate(-180 10.4611 136.767)" fill="#E1E1E1"/>
<ellipse cx="10.4611" cy="147.26" rx="3.13846" ry="3.14807" transform="rotate(-180 10.4611 147.26)" fill="#E1E1E1"/>
<rect x="119.262" y="100.039" width="10.4615" height="31.4807" fill="#007300"/>
<rect x="119.262" y="100.039" width="1.04615" height="31.4807" fill="black" fill-opacity="0.2"/>
<ellipse cx="125.539" cy="126.273" rx="3.13846" ry="3.14807" fill="#E1E1E1"/>
<ellipse cx="125.539" cy="115.779" rx="3.13846" ry="3.14807" fill="#E1E1E1"/>
<ellipse cx="125.539" cy="105.286" rx="3.13846" ry="3.14807" fill="#E1E1E1"/>
<rect x="119.262" y="63.3115" width="10.4615" height="31.4807" fill="#007300"/>
<rect x="119.262" y="63.3115" width="1.04615" height="31.4807" fill="black" fill-opacity="0.2"/>
<ellipse cx="125.539" cy="89.5455" rx="3.13846" ry="3.14807" fill="#E1E1E1"/>
<ellipse cx="125.539" cy="79.0514" rx="3.13846" ry="3.14807" fill="#E1E1E1"/>
<ellipse cx="125.539" cy="68.5582" rx="3.13846" ry="3.14807" fill="#E1E1E1"/>
<rect x="119.262" y="15.041" width="10.4615" height="43.3734" fill="#007300"/>
<rect x="119.262" y="15.041" width="1.04615" height="43.3734" fill="black" fill-opacity="0.2"/>
<ellipse cx="125.539" cy="41.275" rx="3.13846" ry="3.14807" fill="#E1E1E1"/>
<ellipse cx="125.539" cy="41.275" rx="3.13846" ry="3.14807" fill="#E1E1E1"/>
<ellipse cx="125.539" cy="30.7809" rx="3.13846" ry="3.14807" fill="#E1E1E1"/>
<ellipse cx="125.539" cy="20.2877" rx="3.13846" ry="3.14807" fill="#E1E1E1"/>
<ellipse cx="125.538" cy="52.818" rx="3.13847" ry="3.14807" fill="#E1E1E1"/>
<ellipse cx="89.9693" cy="144.111" rx="4.18462" ry="4.19743" fill="#B8AF82"/>
<ellipse cx="89.9695" cy="144.112" rx="3.13846" ry="3.14807" fill="white"/>
<ellipse cx="88.9229" cy="47.5705" rx="4.18461" ry="4.19742" fill="#B8AF82"/>
<ellipse cx="88.9231" cy="47.5709" rx="3.13846" ry="3.14807" fill="white"/>
<ellipse cx="49.169" cy="144.111" rx="4.18462" ry="4.19743" fill="#B8AF82"/>
<ellipse cx="49.1692" cy="144.112" rx="3.13846" ry="3.14807" fill="white"/>
<rect x="68" y="73.4551" width="14.6462" height="14.691" fill="#1A1A1A"/>
<rect x="85.7847" y="112.98" width="12.9026" height="6.9957" fill="#1A1A1A"/>
<rect x="12.9023" y="21.3369" width="3.13846" height="6.29614" fill="#D9D9D9"/>
<rect x="79.1592" y="116.828" width="3.8359" height="6.99571" fill="#D9D9D9"/>
<rect x="101.477" y="116.828" width="3.8359" height="6.99571" fill="#D9D9D9"/>
<rect width="31.3846" height="5.24678" transform="translate(83.6924 10.8438)" fill="#404040"/>
<rect x="85.0874" y="12.2432" width="2.44103" height="2.4485" fill="#151515"/>
<rect x="90.3179" y="12.2432" width="2.44103" height="2.4485" fill="#151515"/>
<rect x="95.5488" y="12.2432" width="2.44102" height="2.4485" fill="#151515"/>
<rect x="100.78" y="12.2432" width="2.44102" height="2.4485" fill="#151515"/>
<rect x="106.01" y="12.2432" width="2.44102" height="2.4485" fill="#151515"/>
<rect x="111.241" y="12.2432" width="2.44103" height="2.4485" fill="#151515"/>
<rect x="111.241" y="151.807" width="9.41538" height="4.19742" fill="#333437"/>
<rect x="119.262" y="132.918" width="9.41538" height="6.9957" fill="#333437"/>
<ellipse cx="73.9282" cy="24.8339" rx="1.74359" ry="1.74893" fill="#C4B38C"/>
<ellipse cx="73.9282" cy="24.8339" rx="1.74359" ry="1.74893" fill="#C4B38C"/>
<ellipse cx="61.3745" cy="24.8339" rx="1.74359" ry="1.74893" fill="#C4B38C"/>
<ellipse cx="61.3745" cy="24.8339" rx="1.74359" ry="1.74893" fill="#C4B38C"/>
<ellipse cx="61.3745" cy="12.2421" rx="1.74359" ry="1.74893" fill="#C4B38C"/>
<ellipse cx="61.3745" cy="12.2421" rx="1.74359" ry="1.74893" fill="#C4B38C"/>
<ellipse cx="73.9282" cy="12.2421" rx="1.74359" ry="1.74893" fill="#C4B38C"/>
<ellipse cx="73.9282" cy="12.2421" rx="1.74359" ry="1.74893" fill="#C4B38C"/>
<rect x="61.0259" y="11.8926" width="13.2513" height="13.2918" fill="#E4C798"/>
<ellipse cx="67.6513" cy="18.538" rx="5.57948" ry="5.59657" fill="#BEAA86"/>
<rect x="50.2153" y="58.0645" width="57.1897" height="10.1438" rx="5.07189" fill="white" fill-opacity="0.3"/>
<rect x="42.8921" y="72.7549" width="9.7641" height="24.1352" rx="4.88205" fill="white" fill-opacity="0.3"/>
<rect x="63.8154" y="147.26" width="12.5538" height="7.69528" rx="3" fill="#D9D9D9"/>
<rect x="66.9536" y="149.358" width="5.92821" height="3.49785" rx="1.74892" fill="#1A1A1A"/>
<rect x="63.1182" y="1.39941" width="9.06666" height="10.4936" fill="#E4C798"/>
<line x1="16.7383" y1="125.472" x2="26.5024" y2="125.472" stroke="white" stroke-opacity="0.3" stroke-width="3"/>
<line x1="16.7383" y1="146.459" x2="25.4562" y2="146.459" stroke="white" stroke-opacity="0.3" stroke-width="3"/>
<path d="M16.7383 136.941H21.7947L25.2819 140.789H26.5024" stroke="white" stroke-opacity="0.3" stroke-width="3"/>
<line x1="25.0024" y1="130.819" x2="25.0024" y2="126.972" stroke="white" stroke-opacity="0.3" stroke-width="3"/>
<line x1="25.0024" y1="147.959" x2="25.0024" y2="144.461" stroke="white" stroke-opacity="0.3" stroke-width="3"/>
<ellipse cx="25.9797" cy="130.995" rx="0.871795" ry="0.874466" fill="#83898C"/>
<ellipse cx="25.9797" cy="144.287" rx="0.871795" ry="0.874458" fill="#83898C"/>
<rect x="63.1182" y="4.19727" width="9.06666" height="1.39914" fill="#1A1A1A"/>
</svg>
